<?xml version="1.0" encoding="UTF-8" standalone="no"?>
<!-- Created with Inkscape (http://www.inkscape.org/) -->

<svg
   width="24"
   height="24"
   viewBox="0 0 24 24"
   version="1.1"
   id="svg639"
   inkscape:version="1.2.2 (b0a8486541, 2022-12-01)"
   sodipodi:docname="icon_mono_black.svg"
   xmlns:inkscape="http://www.inkscape.org/namespaces/inkscape"
   xmlns:sodipodi="http://sodipodi.sourceforge.net/DTD/sodipodi-0.dtd"
   xmlns="http://www.w3.org/2000/svg"
   xmlns:svg="http://www.w3.org/2000/svg">
  <sodipodi:namedview
     id="namedview641"
     pagecolor="#ffffff"
     bordercolor="#666666"
     borderopacity="1.0"
     inkscape:showpageshadow="2"
     inkscape:pageopacity="0.0"
     inkscape:pagecheckerboard="0"
     inkscape:deskcolor="#d1d1d1"
     inkscape:document-units="mm"
     showgrid="false"
     inkscape:zoom="29.324851"
     inkscape:cx="11.219153"
     inkscape:cy="11.901169"
     inkscape:window-width="2516"
     inkscape:window-height="1051"
     inkscape:window-x="0"
     inkscape:window-y="0"
     inkscape:window-maximized="1"
     inkscape:current-layer="layer1"
     showguides="false" />
  <defs
     id="defs636" />
  <g
     inkscape:label="Layer 1"
     inkscape:groupmode="layer"
     id="layer1">
     <path
        style="fill:#ffffff;"
        d="M 7.9664064,1.9820629 A 1.316742,1.3299094 0 0 0 7.1671878,2.6022658 1.316742,1.3299094 0 0 0 7.6500004,4.4178987 L 17.273437,10.0305 12.482813,12.823782 A 1.316742,1.3299094 0 0 0 12,14.639413 a 1.316742,1.3299094 0 0 0 1.8,0.487642 l 6.764063,-3.946102 a 1.3168738,1.3300424 0 0 0 0,-2.3032727 L 8.9648444,2.1146253 A 1.316742,1.3299094 0 0 0 7.9664064,1.9820629 Z M 5.6015628,4.9126408 A 1.3168738,1.3300424 0 0 0 4.9429691,6.063094 v 13.526109 a 1.316742,1.3299094 0 0 0 1.3171876,1.33036 1.316742,1.3299094 0 0 0 1.3171874,-1.33036 V 8.3663673 l 4.7906249,2.7932807 a 1.316742,1.3299094 0 0 0 1.797657,-0.485274 1.316742,1.3299094 0 0 0 -0.48047,-1.8179987 L 6.9187504,4.9126408 a 1.3168738,1.3300424 0 0 0 -1.3171876,0 z m 4.0945316,5.8445852 a 1.316742,1.3299094 0 0 0 -1.317188,1.330361 v 7.889834 a 1.3168738,1.3300424 0 0 0 1.9757806,1.150453 l 11.599219,-6.763053 a 1.316742,1.3299094 0 0 0 0.480468,-1.815634 1.316742,1.3299094 0 0 0 -1.797655,-0.48764 l -9.623438,5.610234 V 12.087587 A 1.316742,1.3299094 0 0 0 9.6960944,10.757226 Z"
        id="path291" />
  </g>
</svg>
