<?xml version="1.0" encoding="UTF-8" standalone="no"?>
<!-- Created with Inkscape (http://www.inkscape.org/) -->

<svg
   width="24"
   height="24"
   viewBox="0 0 24 24"
   version="1.1"
   id="svg639"
   inkscape:version="1.2.2 (b0a8486541, 2022-12-01)"
   sodipodi:docname="icon_mono_black.svg"
   xmlns:inkscape="http://www.inkscape.org/namespaces/inkscape"
   xmlns:sodipodi="http://sodipodi.sourceforge.net/DTD/sodipodi-0.dtd"
   xmlns="http://www.w3.org/2000/svg"
   xmlns:svg="http://www.w3.org/2000/svg">
  <sodipodi:namedview
     id="namedview641"
     pagecolor="#ffffff"
     bordercolor="#666666"
     borderopacity="1.0"
     inkscape:showpageshadow="2"
     inkscape:pageopacity="0.0"
     inkscape:pagecheckerboard="0"
     inkscape:deskcolor="#d1d1d1"
     inkscape:document-units="mm"
     showgrid="false"
     inkscape:zoom="29.324851"
     inkscape:cx="11.219153"
     inkscape:cy="11.901169"
     inkscape:window-width="2516"
     inkscape:window-height="1051"
     inkscape:window-x="0"
     inkscape:window-y="0"
     inkscape:window-maximized="1"
     inkscape:current-layer="layer1"
     showguides="false" />
  <defs
     id="defs636" />
  <g
     inkscape:label="Layer 1"
     inkscape:groupmode="layer"
     id="layer1">
    <path
       style="fill:#000000;"
       d="M 8.6386719,3.734375 A 1.097285,1.097285 0 0 0 7.9726562,4.2460937 1.097285,1.097285 0 0 0 8.375,5.7441406 L 16.394531,10.375 12.402344,12.679688 A 1.097285,1.097285 0 0 0 12,14.177734 a 1.097285,1.097285 0 0 0 1.5,0.402344 l 5.636719,-3.255859 a 1.0973948,1.0973948 0 0 0 0,-1.9003909 L 9.4707031,3.84375 A 1.097285,1.097285 0 0 0 8.6386719,3.734375 Z M 6.6679687,6.1523437 A 1.0973948,1.0973948 0 0 0 6.1191406,7.1015625 V 18.261719 a 1.097285,1.097285 0 0 0 1.0976563,1.097656 1.097285,1.097285 0 0 0 1.0976562,-1.097656 V 9.0019531 l 3.9921879,2.3046879 a 1.097285,1.097285 0 0 0 1.498047,-0.400391 1.097285,1.097285 0 0 0 -0.400391,-1.5 L 7.765625,6.1523437 a 1.0973948,1.0973948 0 0 0 -1.0976563,0 z m 3.4121093,4.8222653 a 1.097285,1.097285 0 0 0 -1.0976561,1.097657 v 6.509765 a 1.0973948,1.0973948 0 0 0 1.6464841,0.949219 l 9.666016,-5.580078 a 1.097285,1.097285 0 0 0 0.40039,-1.498047 1.097285,1.097285 0 0 0 -1.498046,-0.402344 l -8.019532,4.628906 v -4.607421 a 1.097285,1.097285 0 0 0 -1.097656,-1.097657 z"
       id="path128643-3-2-93-6-0-6-9" />
  </g>
</svg>
