<svg xmlns="http://www.w3.org/2000/svg" xmlns:xlink="http://www.w3.org/1999/xlink" width="280" height="80"><defs><linearGradient xlink:href="#a" id="b" x1="75.381" x2="56.756" y1="72.556" y2="62.604" gradientTransform="matrix(1.75566 0 0 1.75566 -66.426 -72.84)" gradientUnits="userSpaceOnUse"/><linearGradient id="a"><stop offset="0" style="stop-color:#16b5ab;stop-opacity:1"/><stop offset="1" style="stop-color:#00eaff;stop-opacity:1"/></linearGradient><linearGradient xlink:href="#a" id="c" x1="75.381" x2="56.756" y1="72.556" y2="62.604" gradientTransform="matrix(-.87783 1.52044 -1.52044 -.87783 203.71 9.066)" gradientUnits="userSpaceOnUse"/><linearGradient xlink:href="#a" id="d" x1="75.381" x2="56.756" y1="72.556" y2="62.604" gradientTransform="matrix(-.87783 -1.52044 1.52044 -.87783 -2.297 202.097)" gradientUnits="userSpaceOnUse"/></defs><g transform="translate(-5.123 -6.043)"><circle cx="45.123" cy="46.043" r="40" style="fill:#1a1e25;stroke-width:2.11056"/><path d="M70.941 49.38 38.723 67.983v-21.7" style="fill:none;stroke:url(#b);stroke-width:7.58983981;stroke-linecap:round;stroke-linejoin:round;stroke-miterlimit:4;stroke-dasharray:none;stroke-opacity:1;paint-order:normal"/><path d="M29.18 66.918V29.716l18.793 10.85" style="fill:none;stroke:url(#c);stroke-width:7.58983981;stroke-linecap:round;stroke-linejoin:round;stroke-miterlimit:4;stroke-dasharray:none;stroke-opacity:1;paint-order:normal"/><path d="m34.867 22.023 32.218 18.6-18.793 10.851" style="fill:none;stroke:url(#d);stroke-width:7.58983981;stroke-linecap:round;stroke-linejoin:round;stroke-miterlimit:4;stroke-dasharray:none;stroke-opacity:1;paint-order:normal"/></g><g aria-label="TIRAYA" style="font-size:49.5467px;line-height:1.25;letter-spacing:0;stroke-width:.877814"><path d="M98.844 34.308h11.031V64.06h7.531V34.308h11.032v-6.282H98.844ZM140.948 28.026h-7.619V64.06h7.619zM147.229 64.06h7.619V51.287h5.56l6.826 12.773h8.41l-7.653-14.005c4.1-1.76 6.369-5.331 6.369-10.258 0-7.16-4.733-11.77-12.914-11.77h-14.217Zm7.619-18.896v-10.91h5.137c4.399 0 6.528 1.954 6.528 5.543 0 3.572-2.13 5.367-6.493 5.367zM185.955 64.06l2.674-8.216h13.003l2.674 8.216h8.164l-12.422-36.034h-9.818L177.791 64.06zm4.61-14.163 4.434-13.636h.281l4.434 13.636zM211.027 28.026l13.144 23.296V64.06h7.565V51.322l13.144-23.296h-8.534l-8.217 15.519h-.351l-8.217-15.519zM251.583 64.06l2.675-8.216h13.002l2.674 8.216h8.164l-12.421-36.034h-9.818l-12.44 36.034zm4.61-14.163 4.434-13.636h.281l4.434 13.636z" style="baseline-shift:baseline;fill:#fff;stroke:#171212" transform="translate(-5.123 -6.043)"/></g></svg>