<svg xmlns="http://www.w3.org/2000/svg" width="24" height="24"><path d="M8.639 3.734a1.097 1.097 0 0 0-.666.512 1.097 1.097 0 0 0 .402 1.498l8.02 4.631-3.993 2.305A1.097 1.097 0 0 0 12 14.178a1.097 1.097 0 0 0 1.5.402l5.637-3.256a1.097 1.097 0 0 0 0-1.9L9.47 3.844a1.097 1.097 0 0 0-.832-.11ZM6.668 6.152a1.097 1.097 0 0 0-.549.95v11.16a1.097 1.097 0 0 0 1.098 1.097 1.097 1.097 0 0 0 1.097-1.097v-9.26l3.993 2.305a1.097 1.097 0 0 0 1.498-.4 1.097 1.097 0 0 0-.4-1.5l-5.64-3.255a1.097 1.097 0 0 0-1.097 0zm3.412 4.823a1.097 1.097 0 0 0-1.098 1.097v6.51a1.097 1.097 0 0 0 1.647.95l9.666-5.58a1.097 1.097 0 0 0 .4-1.499 1.097 1.097 0 0 0-1.498-.402l-8.02 4.629v-4.608a1.097 1.097 0 0 0-1.097-1.097z" style="fill:#000"/></svg>