<svg xmlns="http://www.w3.org/2000/svg" width="24" height="24"><path d="M7.966 1.982a1.317 1.33 0 0 0-.799.62 1.317 1.33 0 0 0 .483 1.816l9.623 5.612-4.79 2.794A1.317 1.33 0 0 0 12 14.639a1.317 1.33 0 0 0 1.8.488l6.764-3.946a1.317 1.33 0 0 0 0-2.303l-11.6-6.763a1.317 1.33 0 0 0-.998-.133Zm-2.364 2.93a1.317 1.33 0 0 0-.659 1.151V19.59a1.317 1.33 0 0 0 1.317 1.33 1.317 1.33 0 0 0 1.317-1.33V8.366l4.791 2.794a1.317 1.33 0 0 0 1.798-.486 1.317 1.33 0 0 0-.48-1.818L6.918 4.913a1.317 1.33 0 0 0-1.317 0zm4.094 5.845a1.317 1.33 0 0 0-1.317 1.33v7.89a1.317 1.33 0 0 0 1.976 1.15l11.599-6.762a1.317 1.33 0 0 0 .48-1.816 1.317 1.33 0 0 0-1.797-.487l-9.624 5.61v-5.584a1.317 1.33 0 0 0-1.317-1.33Z" style="fill:#000"/></svg>