<svg xmlns="http://www.w3.org/2000/svg" xml:space="preserve" width="24" height="24"><path d="M9.27 10.61a1.524 1.524 0 0 0-1.525 1.524v8.628a1.524 1.524 0 0 0 2.286 1.32l12.81-7.396a1.524 1.524 0 0 0 .558-2.082 1.524 1.524 0 0 0-2.082-.557l-10.524 6.076v-5.989A1.524 1.524 0 0 0 9.27 10.61" style="color:#000;fill:#000;fill-opacity:1;stroke-width:.265072;stroke-linecap:round;stroke-linejoin:round;-inkscape-stroke:none"/><path d="M7.342 1.016a1.52 1.52 0 0 0-.926.71 1.524 1.524 0 0 0 .558 2.082l10.525 6.076-5.187 2.995a1.524 1.524 0 0 0-.558 2.081 1.524 1.524 0 0 0 2.082.558l7.472-4.314a1.524 1.524 0 0 0 0-2.64L8.498 1.169a1.52 1.52 0 0 0-1.156-.152" style="color:#000;fill:#000;fill-opacity:1;stroke-width:.265072;stroke-linecap:round;stroke-linejoin:round;-inkscape-stroke:none"/><path d="M4.713 4.228a1.52 1.52 0 0 0-.762 1.32v14.791a1.524 1.524 0 0 0 1.524 1.524A1.524 1.524 0 0 0 7 20.34V8.187l5.186 2.994a1.524 1.524 0 0 0 2.082-.558 1.524 1.524 0 0 0-.558-2.081L6.237 4.228a1.52 1.52 0 0 0-1.524 0" style="color:#000;fill:#000;fill-opacity:1;stroke-width:.265072;stroke-linecap:round;stroke-linejoin:round;-inkscape-stroke:none"/></svg>